<svg width="22" height="38" viewBox="0 0 22 38" fill="none" xmlns="http://www.w3.org/2000/svg">
<path d="M9.30769 28.733C9.34295 26.6859 9.67789 24.986 10.3125 23.6335C10.9824 22.2809 11.9343 20.7821 13.1683 19.1371C14.367 17.5652 15.2484 16.176 15.8125 14.9697C16.4119 13.7268 16.7115 12.2097 16.7115 10.4185C16.7115 7.78644 16.0417 5.75758 14.7019 4.33189C13.3974 2.9062 11.7756 2.19336 9.83654 2.19336C7.65064 2.19336 5.76442 3.01587 4.17788 4.66089C2.6266 6.26936 1.58654 8.55411 1.05769 11.5152H0C0 9.68735 0.0705128 8.24338 0.211538 7.18326C0.352564 6.08658 0.722756 5.1544 1.32212 4.38672C2.30929 3.14382 3.71955 2.10197 5.55288 1.26118C7.42147 0.420395 9.3782 0 11.4231 0C14.2083 0 16.6587 0.767677 18.774 2.30303C20.9247 3.80183 22 6.50698 22 10.4185C22 11.9538 21.7356 13.3247 21.2067 14.531C20.6779 15.7374 20.0433 16.7792 19.3029 17.6566C18.5625 18.5339 17.5577 19.594 16.2885 20.8369C14.7019 22.2992 13.5032 23.5969 12.6923 24.7302C11.8814 25.8634 11.4583 27.1977 11.4231 28.733H9.30769ZM10.3654 38C9.55449 38 8.86699 37.7076 8.30289 37.1227C7.77404 36.5378 7.50962 35.8432 7.50962 35.039C7.50962 34.1982 7.77404 33.4853 8.30289 32.9004C8.86699 32.3155 9.55449 32.0231 10.3654 32.0231C11.1763 32.0231 11.8638 32.3155 12.4279 32.9004C12.992 33.4853 13.274 34.1982 13.274 35.039C13.274 35.8432 12.9744 36.5378 12.375 37.1227C11.8109 37.7076 11.141 38 10.3654 38Z" fill="#D9AB62"/>
</svg>
