<?xml version="1.0" encoding="UTF-8"?> <svg xmlns="http://www.w3.org/2000/svg" width="240" height="247" viewBox="0 0 240 247" fill="none"> <circle cx="119.284" cy="135.491" r="12.1012" fill="#4A3D39"></circle> <path d="M119.735 57.3878L114.027 46.5213C114.027 46.521 114.027 46.5207 114.027 46.5204C109.326 37.4656 109.327 26.7801 114.026 17.8569L114.026 17.8564L119.399 7.62489L132.21 32.1753L132.211 32.1763L145.488 57.748L145.488 57.7487L227.146 215.661L227.147 215.664L238.439 237.782H53.2052L55.2067 233.82C55.2069 233.819 55.2071 233.819 55.2072 233.819C60.8226 222.878 72.4536 215.949 85.1436 215.949H200.928H201.795L201.397 215.179L133.015 82.9642L133.015 82.9634L119.737 57.39L119.735 57.3878ZM161.761 191.931H49.8529H49.53L49.3829 192.218L37.6139 215.208L37.6118 215.212L35.2331 219.961C35.2329 219.961 35.2327 219.961 35.2326 219.962C29.6406 230.949 18.0591 237.781 5.5539 237.781H0.865659L12.2384 215.69L12.239 215.689L24.0077 192.7L24.008 192.7L93.0947 58.1184L98.1771 67.9909C98.1774 67.9914 98.1776 67.9919 98.1779 67.9924C102.861 77.2173 102.861 88.0842 98.1771 97.3089L61.1521 169.486L60.7576 170.255H61.6219H129.591C142.36 170.255 154.076 177.215 159.8 188.334L159.8 188.334L159.806 188.345L161.761 191.931Z" fill="url(#paint0_linear_106_9806)" stroke="url(#paint1_linear_106_9806)" stroke-width="0.263994"></path> <defs> <linearGradient id="paint0_linear_106_9806" x1="98.2053" y1="61.4591" x2="131.658" y2="231.538" gradientUnits="userSpaceOnUse"> <stop offset="0.227083" stop-color="#AB863F"></stop> <stop offset="0.508333" stop-color="#F9EF9D"></stop> <stop offset="0.745017" stop-color="#B39046"></stop> </linearGradient> <linearGradient id="paint1_linear_106_9806" x1="96.0934" y1="64.6271" x2="59.9315" y2="194.44" gradientUnits="userSpaceOnUse"> <stop stop-color="#FDF18C"></stop> <stop offset="0.461458" stop-color="#AB863F"></stop> <stop offset="1" stop-color="#FEF189"></stop> </linearGradient> </defs> </svg> 